<svg xmlns="http://www.w3.org/2000/svg" width="24" height="24" viewBox="0 0 24 24">
    <path fill="#3D4853" fill-rule="nonzero" d="M21.519 8.144a1.033 1.033 0 0 0-.03-.213l.001.008c-.007-.026-.021-.049-.03-.073a.976.976 0 0 0-.064-.155c-.016-.027-.039-.05-.057-.075-.03-.042-.059-.085-.095-.12-.024-.025-.055-.043-.083-.065-.035-.027-.067-.06-.105-.082l-.013-.005-.01-.007-3.13-1.731-9.712 5.363v2.915l-1.904-1.047v-2.761c0-.387.03-.447.367-.636l9.033-5.059-3.244-1.795a.946.946 0 0 0-.929.004l.005-.003L2.967 7.36l-.008.006c-.005.003-.009.003-.013.005-.043.025-.077.059-.115.09-.024.019-.052.036-.074.058-.037.037-.066.081-.097.124-.017.024-.039.046-.053.071a.894.894 0 0 0-.064.15l-.002.007c-.008.025-.021.048-.028.07a.818.818 0 0 0-.029.203v.002c-.001.015-.007.03-.007.045v7.622c0 .346.187.664.49.833l8.573 4.761c.041.023.086.036.129.052.03.012.06.028.092.037a1.001 1.001 0 0 0 .489-.001h-.007c.031-.008.061-.024.093-.036.043-.016.087-.028.128-.052l.019-.01.001-.001.002-.002 8.55-4.75a.953.953 0 0 0 .488-.833V8.19c0-.016-.005-.029-.005-.044v-.002zm-8.566 10.809v-5.41l6.667-3.73v5.434l-6.667 3.704v.002z"/>
</svg>
