<svg xmlns="http://www.w3.org/2000/svg" width="195" height="36" viewBox="0 0 195 36">
    <g fill="none" fill-rule="nonzero">
        <g fill="#F49879">
            <path d="M38.545 17.88l1.126-1.12-.748-.756-1.127 1.127-1.126-1.127-.741.756 1.119 1.12-1.12 1.126.742.749 1.126-1.127 1.127 1.127.748-.75zM40.42 16.004l1.119-1.12 1.126 1.12.749-.749-1.119-1.119 1.119-1.134-.749-.749-1.126 1.127-1.12-1.127-.748.749 1.12 1.134-1.12 1.12z"/>
            <path d="M40.42 19.755l1.119-1.127 1.126 1.127.749-.75-1.119-1.126 1.119-1.119-.749-.756-1.126 1.127-1.12-1.127-.748.756 1.12 1.12-1.12 1.126z"/>
            <path d="M42.665 19.755L41.54 20.88l-1.12-1.126-.748.748 1.12 1.127-1.12 1.127.749.748 1.119-1.127 1.126 1.127.749-.748-1.119-1.127 1.119-1.127zM47.157 16.76l-.741-.756-1.127 1.127-1.127-1.127-.748.756 1.127 1.12-1.127 1.126.748.749 1.127-1.127 1.127 1.127.74-.75-1.118-1.126z"/>
            <g>
                <path d="M50.791 5.626L51.91 4.5l-.749-.748-1.126 1.127-1.12-1.127-.748.748 1.127 1.127-1.127 1.127.749.749 1.119-1.127 1.126 1.127.749-.75zM52.658 3.75l1.127-1.126 1.127 1.127.74-.749-1.118-1.127L55.653.75 54.912 0l-1.127 1.127L52.658 0l-.748.749 1.127 1.126-1.127 1.127z"/>
                <path d="M52.658 7.502l1.127-1.127 1.127 1.127.74-.75-1.118-1.126L55.653 4.5l-.741-.748-1.127 1.127-1.127-1.127-.748.748 1.127 1.127-1.127 1.127z"/>
                <path d="M54.912 7.502L53.785 8.62l-1.127-1.118-.748.748 1.127 1.127-1.127 1.119.748.756 1.127-1.127 1.127 1.127.74-.756-1.118-1.12 1.119-1.126zM59.395 4.5l-.74-.75-1.127 1.128L56.4 3.75l-.748.748 1.126 1.127-1.126 1.127.748.749 1.127-1.127 1.126 1.127.741-.75-1.119-1.126z"/>
            </g>
            <g>
                <path d="M50.791 29.99l1.119-1.119-.749-.756-1.126 1.127-1.12-1.127-.748.756 1.127 1.12-1.127 1.126.749.749 1.119-1.127 1.126 1.127.749-.749zM52.658 28.115l1.127-1.127 1.127 1.127.74-.749-1.118-1.126 1.119-1.12-.741-.756-1.127 1.127-1.127-1.127-.748.757 1.127 1.119-1.127 1.126zM52.658 31.866l1.127-1.127 1.127 1.127.74-.749-1.118-1.127 1.119-1.119-.741-.756-1.127 1.127-1.127-1.127-.748.756 1.127 1.12-1.127 1.126z"/>
                <path d="M54.912 31.866l-1.127 1.126-1.127-1.126-.748.748 1.127 1.127-1.127 1.127.748.748 1.127-1.126 1.127 1.126.74-.748-1.118-1.127 1.119-1.127zM59.395 28.871l-.74-.756-1.127 1.127-1.127-1.127-.748.756 1.126 1.12-1.126 1.126.748.749 1.127-1.127 1.126 1.127.741-.749-1.119-1.127z"/>
            </g>
            <g>
                <path d="M63.022 17.88l1.127-1.12-.749-.756-1.127 1.127-1.118-1.127-.749.756 1.127 1.12-1.127 1.126.749.749 1.118-1.127 1.127 1.127.749-.75zM64.905 16.004l1.119-1.12 1.119 1.12.748-.749-1.119-1.119 1.12-1.134-.75-.749-1.118 1.127-1.12-1.127-.755.749 1.126 1.134-1.126 1.12z"/>
                <path d="M64.905 19.755l1.119-1.127 1.119 1.127.748-.75-1.119-1.126 1.12-1.119-.75-.756-1.118 1.127-1.12-1.127-.755.756 1.126 1.12-1.126 1.126zM67.143 19.755l-1.12 1.126-1.118-1.126-.756.748 1.126 1.127-1.126 1.127.756.748 1.119-1.127 1.119 1.127.748-.748-1.119-1.127 1.12-1.127z"/>
                <path d="M71.641 16.76l-.748-.756-1.127 1.127-1.126-1.127-.749.756 1.127 1.12-1.127 1.126.749.749 1.126-1.127 1.127 1.127.748-.75-1.126-1.126z"/>
            </g>
            <path d="M59.704 17.88l-2.624-2.633 1.358-1.355-.787-.788-1.358 1.355-2.508-2.513-2.57 2.568-1.42-1.418-.786.788 1.42 1.418-2.57 2.57 2.508 2.513-1.358 1.363.787.788 1.358-1.355 2.631 2.632 2.57-2.57 1.288 1.293.788-.788-1.297-1.3 2.57-2.569zm-5.919 4.357l-1.844-1.844 1.235-1.237-.788-.788-1.234 1.237-1.721-1.726 1.782-1.78 1.173 1.173.788-.788-1.173-1.174 1.782-1.78 1.72 1.725-1.234 1.237.787.788 1.235-1.237 1.844 1.844-1.782 1.78-1.297-1.3-.787.789 1.297 1.3-1.783 1.78z"/>
        </g>
        <g fill="#3D4853">
            <path d="M8.535 11.788c.84.386 1.481.938 1.937 1.647.455.71.679 1.552.679 2.53 0 .96-.224 1.796-.68 2.513-.455.717-1.095 1.269-1.936 1.647-.841.378-1.83.567-2.964.567H2.98v3.61H.008V11.204H5.57c1.135 0 2.123.19 2.964.583zm-1.096 5.847c.463-.394.694-.954.694-1.679 0-.732-.231-1.3-.694-1.694-.463-.394-1.142-.59-2.037-.59H2.979v4.546h2.423c.895.008 1.574-.19 2.037-.583zM21.445 24.301l-2.477-3.648H16.236V24.3h-2.971V11.205h5.564c1.134 0 2.122.197 2.963.583.841.386 1.481.938 1.937 1.647.455.71.679 1.552.679 2.53 0 .976-.232 1.812-.687 2.513-.455.701-1.111 1.245-1.952 1.615l2.878 4.208h-3.202zm-.757-10.039c-.463-.394-1.142-.59-2.037-.59h-2.423v4.57h2.423c.895 0 1.574-.197 2.037-.6.463-.401.695-.96.695-1.686.008-.732-.232-1.3-.695-1.694zM26.746 11.205h2.97v13.104h-2.97zM44.54 11.205v13.104h-2.438l-6.405-7.95v7.95h-2.932V11.205h2.462l6.389 7.95v-7.95zM50.25 13.671h-4.112v-2.474h11.197v2.474h-4.113v10.63H50.25zM74.072 21.874v2.435h-9.947V11.205h9.708v2.435h-6.752v2.844h5.965v2.356H67.08v3.034zM88.124 24.301l-.015-7.864-3.781 6.477h-1.343l-3.758-6.304v7.691H76.44V11.205h2.462l4.807 8.14 4.738-8.14h2.439l.038 13.104h-2.8zM105.116 18.683c.417.551.625 1.237.625 2.049 0 1.15-.44 2.033-1.311 2.647-.872.615-2.153.93-3.828.93h-6.644V11.205h6.274c1.566 0 2.77.307 3.603.914.841.615 1.258 1.442 1.258 2.49 0 .638-.146 1.206-.447 1.702a3.23 3.23 0 0 1-1.258 1.182c.74.236 1.312.63 1.728 1.19zm-8.202-5.193v3.089h2.955c.733 0 1.289-.134 1.667-.394.378-.26.57-.646.57-1.158 0-.513-.192-.899-.57-1.15-.378-.253-.934-.387-1.667-.387h-2.955zm5.24 8.14c.4-.26.593-.67.593-1.214 0-1.087-.787-1.63-2.369-1.63h-3.464v3.238h3.464c.787 0 1.382-.134 1.775-.394zM116.182 24.301l-2.477-3.648H110.973V24.3h-2.97V11.205h5.563c1.134 0 2.122.197 2.963.583.841.386 1.482.938 1.937 1.647.455.71.68 1.552.68 2.53 0 .976-.232 1.812-.688 2.513-.455.701-1.11 1.245-1.952 1.615l2.878 4.208h-3.202zm-.748-10.039c-.463-.394-1.143-.59-2.038-.59h-2.423v4.57h2.423c.895 0 1.575-.197 2.038-.6.463-.401.694-.96.694-1.686 0-.732-.231-1.3-.694-1.694zM124.1 23.647a6.438 6.438 0 0 1-2.516-2.427c-.602-1.032-.91-2.183-.91-3.475 0-1.284.3-2.443.91-3.475.602-1.032 1.443-1.836 2.515-2.427 1.073-.583 2.269-.882 3.604-.882s2.531.291 3.596.882a6.543 6.543 0 0 1 2.516 2.427c.61 1.032.918 2.19.918 3.475 0 1.285-.309 2.443-.918 3.475a6.546 6.546 0 0 1-2.516 2.427c-1.065.583-2.261.883-3.596.883-1.327 0-2.531-.292-3.604-.883zm5.663-2.23a3.84 3.84 0 0 0 1.443-1.49c.348-.637.525-1.362.525-2.174 0-.812-.177-1.536-.525-2.175a3.736 3.736 0 0 0-1.443-1.489 4.016 4.016 0 0 0-2.052-.536c-.757 0-1.443.181-2.053.536a3.84 3.84 0 0 0-1.443 1.49c-.347.638-.525 1.362-.525 2.174 0 .812.178 1.537.525 2.175a3.736 3.736 0 0 0 1.443 1.49c.61.354 1.296.535 2.053.535.756-.008 1.435-.181 2.052-.536zM136.97 11.205h2.972v13.104h-2.971zM142.99 11.205h5.834c1.396 0 2.623.268 3.696.812 1.072.543 1.898 1.308 2.492 2.293.594.985.888 2.135.888 3.443 0 1.308-.294 2.459-.888 3.444-.594.984-1.427 1.749-2.492 2.293-1.073.543-2.3.811-3.696.811h-5.834V11.205zm5.687 10.614c1.28 0 2.307-.362 3.071-1.095.764-.733 1.15-1.718 1.15-2.963s-.386-2.238-1.15-2.963c-.764-.733-1.79-1.095-3.071-1.095h-2.716v8.124h2.716v-.008zM168.092 21.874v2.435h-9.947V11.205h9.708v2.435H161.1v2.844h5.965v2.356H161.1v3.034zM178.648 24.301l-2.477-3.648h-2.731V24.3h-2.979V11.205h5.564c1.134 0 2.122.197 2.963.583.841.386 1.482.938 1.937 1.647.455.71.679 1.552.679 2.53 0 .976-.232 1.812-.687 2.513-.455.701-1.111 1.245-1.952 1.615l2.878 4.208h-3.195zm-.756-10.039c-.463-.394-1.142-.59-2.037-.59h-2.423v4.57h2.423c.895 0 1.574-.197 2.037-.6.463-.401.695-.96.695-1.686 0-.732-.232-1.3-.695-1.694zM189.93 19.66v4.641h-2.97v-4.68l-4.97-8.424h3.156l3.434 5.823 3.434-5.823h2.917z"/>
        </g>
    </g>
</svg>
