<svg xmlns="http://www.w3.org/2000/svg" width="244" height="45" viewBox="0 0 244 45">
    <g fill="none" fill-rule="nonzero">
        <g fill="#F49879">
            <path d="M48.23 22.349l1.41-1.399-.937-.945-1.41 1.408-1.409-1.408-.927.945 1.4 1.399-1.4 1.408.927.936 1.41-1.408 1.41 1.408.936-.936zM50.577 20.005l1.4-1.399 1.41 1.399.936-.936-1.4-1.399 1.4-1.418-.937-.936-1.41 1.409-1.4-1.409-.936.936 1.4 1.418-1.4 1.399zM50.577 24.693l1.4-1.408 1.41 1.408.936-.936-1.4-1.408 1.4-1.399-.937-.945-1.41 1.408-1.4-1.408-.936.945 1.4 1.399-1.4 1.408zM53.386 24.693l-1.41 1.409-1.4-1.409-.936.936 1.4 1.408-1.4 1.409.937.936 1.4-1.409 1.41 1.409.936-.936-1.4-1.409 1.4-1.408zM59.006 20.95l-.927-.945-1.41 1.408-1.41-1.408-.936.945 1.41 1.399-1.41 1.408.937.936 1.41-1.408 1.41 1.408.926-.936-1.4-1.408z"/>
            <g>
                <path d="M63.554 7.033l1.4-1.409-.937-.936-1.41 1.409-1.4-1.409-.936.936 1.41 1.409-1.41 1.408.937.936 1.4-1.409 1.41 1.409.936-.936zM65.89 4.688L67.3 3.28l1.41 1.408.927-.935-1.4-1.409 1.4-1.408L68.71 0 67.3 1.409 65.89 0l-.936.936 1.41 1.408-1.41 1.409z"/>
                <path d="M65.89 9.377l1.41-1.409 1.41 1.409.927-.936-1.4-1.408 1.4-1.409-.927-.936-1.41 1.409-1.41-1.409-.936.936 1.41 1.409-1.41 1.408z"/>
                <path d="M68.71 9.377l-1.41 1.399-1.41-1.4-.936.937 1.41 1.408-1.41 1.399.937.945 1.41-1.408 1.41 1.408.926-.945-1.4-1.399 1.4-1.408zM74.32 5.624l-.927-.936-1.41 1.409-1.41-1.409-.936.936 1.41 1.409-1.41 1.408.937.936 1.41-1.409 1.41 1.409.926-.936-1.4-1.408z"/>
            </g>
            <g>
                <path d="M63.554 37.488l1.4-1.399-.937-.945-1.41 1.408-1.4-1.408-.936.945 1.41 1.399-1.41 1.408.937.936 1.4-1.408 1.41 1.408.936-.936zM65.89 35.144l1.41-1.409 1.41 1.409.927-.936-1.4-1.409 1.4-1.398-.927-.946-1.41 1.409-1.41-1.409-.936.946 1.41 1.398-1.41 1.409z"/>
                <path d="M65.89 39.832l1.41-1.408 1.41 1.408.927-.936-1.4-1.408 1.4-1.399-.927-.945-1.41 1.408-1.41-1.408-.936.945 1.41 1.399-1.41 1.408zM68.71 39.832l-1.41 1.409-1.41-1.409-.936.936 1.41 1.408-1.41 1.409.937.936 1.41-1.409 1.41 1.409.926-.936-1.4-1.409 1.4-1.408z"/>
                <path d="M74.32 36.09l-.927-.946-1.41 1.408-1.41-1.408-.936.945 1.41 1.399-1.41 1.408.937.936 1.41-1.408 1.41 1.408.926-.936-1.4-1.408z"/>
            </g>
            <g>
                <path d="M78.858 22.349l1.41-1.399-.937-.945-1.41 1.408-1.4-1.408-.936.945 1.41 1.399-1.41 1.408.937.936 1.4-1.408 1.41 1.408.936-.936zM81.214 20.005l1.4-1.399 1.4 1.399.937-.936-1.4-1.399 1.4-1.418-.937-.936-1.4 1.409-1.4-1.409-.946.936 1.41 1.418-1.41 1.399zM81.214 24.693l1.4-1.408 1.4 1.408.937-.936-1.4-1.408 1.4-1.399-.937-.945-1.4 1.408-1.4-1.408-.946.945 1.41 1.399-1.41 1.408zM84.014 24.693l-1.4 1.409-1.4-1.409-.946.936 1.41 1.408-1.41 1.409.946.936 1.4-1.409 1.4 1.409.937-.936-1.4-1.409 1.4-1.408zM89.644 20.95l-.937-.945-1.41 1.408-1.41-1.408-.936.945 1.41 1.399-1.41 1.408.937.936 1.41-1.408 1.41 1.408.936-.936-1.41-1.408z"/>
            </g>
            <path d="M74.706 22.349l-3.283-3.29 1.7-1.694-.985-.985-1.7 1.694-3.138-3.142-3.215 3.211-1.777-1.773-.985.985 1.777 1.773-3.215 3.211 3.138 3.142-1.7 1.704.985.985 1.7-1.694 3.292 3.29 3.216-3.211 1.612 1.615.985-.985-1.622-1.625 3.215-3.211zM67.3 27.796l-2.307-2.305 1.545-1.546-.985-.985-1.545 1.546-2.153-2.157 2.23-2.226 1.468 1.467.985-.984-1.468-1.468 2.23-2.226 2.154 2.157-1.545 1.546.985.985 1.544-1.546 2.308 2.305-2.23 2.226-1.622-1.625-.985.985 1.622 1.625-2.23 2.226z"/>
        </g>
        <g fill="#FFF">
            <path d="M10.68 14.735c1.052.483 1.853 1.172 2.423 2.059.57.886.85 1.94.85 3.161 0 1.202-.28 2.246-.85 3.142-.57.897-1.371 1.586-2.424 2.06-1.052.472-2.288.708-3.708.708H3.727v4.511H.01v-16.37H6.97c1.42 0 2.656.237 3.708.73zm-1.372 7.309c.58-.493.87-1.192.87-2.098 0-.916-.29-1.626-.87-2.118-.58-.493-1.429-.739-2.549-.739H3.727v5.683H6.76c1.12.01 1.97-.236 2.55-.728zM26.833 30.376l-3.1-4.56h-3.417v4.56h-3.718v-16.37h6.962c1.42 0 2.655.246 3.708.73 1.052.482 1.854 1.171 2.423 2.058.57.886.85 1.94.85 3.161 0 1.222-.29 2.266-.86 3.142-.569.877-1.39 1.557-2.442 2.02l3.601 5.26h-4.007zm-.946-12.548c-.58-.493-1.43-.739-2.55-.739h-3.031v5.713h3.032c1.12 0 1.97-.246 2.549-.749.58-.502.869-1.201.869-2.107.01-.916-.29-1.626-.869-2.118zM33.467 14.006h3.717v16.38h-3.717zM55.733 14.006v16.38h-3.051l-8.015-9.938v9.938h-3.669v-16.38h3.08l7.995 9.939v-9.939zM62.878 17.09h-5.146v-3.094h14.01v3.093h-5.147v13.287h-3.717zM92.685 27.343v3.043H80.24v-16.38h12.147v3.044h-8.449v3.556h7.464v2.945h-7.464v3.792zM110.268 30.376l-.019-9.83-4.731 8.097h-1.68l-4.703-7.88v9.613H95.65v-16.37h3.08l6.015 10.175 5.929-10.175h3.051l.048 16.38h-3.505zM131.53 23.354c.522.69.782 1.546.782 2.56 0 1.439-.55 2.542-1.641 3.31-1.091.768-2.694 1.162-4.79 1.162h-8.313v-16.38h7.85c1.96 0 3.467.384 4.51 1.143 1.052.768 1.573 1.802 1.573 3.112 0 .798-.183 1.507-.56 2.128a4.04 4.04 0 0 1-1.574 1.477c.927.296 1.642.788 2.163 1.488zm-10.264-6.491v3.86h3.698c.918 0 1.613-.167 2.086-.492.473-.325.714-.807.714-1.448 0-.64-.24-1.123-.714-1.438-.473-.315-1.168-.482-2.086-.482h-3.698zm6.556 10.174c.502-.325.744-.837.744-1.516 0-1.36-.985-2.04-2.964-2.04h-4.336v4.049h4.336c.984 0 1.728-.168 2.22-.493zM145.376 30.376l-3.099-4.56H138.859v4.56h-3.718v-16.37h6.962c1.42 0 2.656.246 3.708.73 1.052.482 1.854 1.171 2.424 2.058.57.886.85 1.94.85 3.161 0 1.222-.29 2.266-.86 3.142-.57.877-1.39 1.557-2.443 2.02l3.602 5.26h-4.008zm-.936-12.548c-.58-.493-1.43-.739-2.55-.739h-3.031v5.713h3.032c1.12 0 1.97-.246 2.549-.749.58-.502.869-1.201.869-2.107 0-.916-.29-1.626-.87-2.118zM155.283 29.559a8.052 8.052 0 0 1-3.148-3.034c-.753-1.29-1.139-2.728-1.139-4.344 0-1.605.377-3.053 1.14-4.343.753-1.29 1.805-2.295 3.147-3.034 1.342-.729 2.839-1.103 4.51-1.103 1.67 0 3.167.364 4.499 1.103a8.183 8.183 0 0 1 3.148 3.034c.763 1.29 1.149 2.738 1.149 4.343 0 1.606-.386 3.054-1.15 4.344-.762 1.29-1.814 2.295-3.147 3.034-1.332.729-2.83 1.103-4.5 1.103-1.66 0-3.167-.364-4.509-1.103zm7.088-2.788a4.803 4.803 0 0 0 1.805-1.861c.435-.798.657-1.704.657-2.719 0-1.014-.222-1.92-.657-2.718a4.672 4.672 0 0 0-1.805-1.862c-.763-.443-1.623-.67-2.569-.67s-1.805.227-2.568.67a4.803 4.803 0 0 0-1.806 1.862c-.434.798-.656 1.704-.656 2.718 0 1.015.222 1.921.656 2.719a4.672 4.672 0 0 0 1.806 1.861c.763.444 1.622.67 2.568.67.946-.01 1.796-.226 2.569-.67zM171.389 14.006h3.717v16.38h-3.717zM178.92 14.006h7.3c1.748 0 3.283.335 4.625 1.015 1.342.68 2.376 1.635 3.12 2.866.743 1.231 1.11 2.67 1.11 4.304 0 1.635-.367 3.073-1.11 4.305-.744 1.23-1.787 2.186-3.12 2.866-1.342.68-2.877 1.014-4.625 1.014h-7.3v-16.37zm7.117 13.268c1.603 0 2.887-.453 3.843-1.37.956-.915 1.438-2.147 1.438-3.703s-.482-2.797-1.438-3.703c-.956-.916-2.24-1.37-3.843-1.37h-3.4v10.156h3.4v-.01zM210.33 27.343v3.043h-12.446v-16.38h12.147v3.044h-8.449v3.556h7.464v2.945h-7.464v3.792zM223.54 30.376l-3.1-4.56H217.022v4.56h-3.727v-16.37h6.962c1.419 0 2.655.246 3.707.73 1.053.482 1.854 1.171 2.424 2.058.57.886.85 1.94.85 3.161 0 1.222-.29 2.266-.86 3.142-.57.877-1.39 1.557-2.443 2.02l3.602 5.26h-3.997zm-.947-12.548c-.58-.493-1.429-.739-2.549-.739h-3.032v5.713h3.032c1.12 0 1.97-.246 2.55-.749.579-.502.868-1.201.868-2.107 0-.916-.29-1.626-.869-2.118zM237.656 24.575v5.801h-3.717v-5.85l-6.219-10.53h3.95l4.296 7.28 4.297-7.28h3.65z"/>
        </g>
    </g>
</svg>
