<svg xmlns="http://www.w3.org/2000/svg" width="24" height="24" viewBox="0 0 24 24">
    <path fill="#3D4853" fill-rule="nonzero" d="M4.381 10.094h-.904a1 1 0 0 0-1 1v5.619a1 1 0 0 0 1 1h1.81a1 1 0 0 0 1-1v-6.619a5.72 5.72 0 0 1 5.714-5.714 5.72 5.72 0 0 1 5.715 5.714v9.525h-3.81a.953.953 0 0 0-.953-.953h-1.857a1 1 0 0 0-1 1v.857a1 1 0 0 0 1 1h7.571a.953.953 0 0 0 .953-.953v-2.857h.904a1 1 0 0 0 1-1v-5.619a1 1 0 0 0-1-1h-.904c0-4.201-3.419-7.618-7.619-7.618-4.202 0-7.62 3.418-7.62 7.618z"/>
</svg>
